<?xml version="1.0" encoding="utf-8"?>
<!-- Generator: Adobe Illustrator 28.2.0, SVG Export Plug-In . SVG Version: 6.00 Build 0)  -->
<svg version="1.1" id="Camada_1" xmlns="http://www.w3.org/2000/svg" xmlns:xlink="http://www.w3.org/1999/xlink" x="0px" y="0px"
	 viewBox="0 0 500 500" style="enable-background:new 0 0 500 500;" xml:space="preserve">
<style type="text/css">
	.st0{fill:#00B33D;}
	.st1{fill:#FFD900;}
	.st2{fill:#FFFFFF;}
</style>
<g>
	<g id="_677642184">
		<g>
			<g>
				<path class="st0" d="M156.1,203.5c-17.2,3-30.4,18.1-30.4,36.2v36.6h84.8c-1.9-14.9-7.5-29.4-17.3-41c-2.6-3.1-5.5-6-8.6-8.6
					L156.1,203.5z"/>
			</g>
			<g>
				<path class="st0" d="M286.7,170v-18c0-20.2-16.5-36.7-36.7-36.7h-36.7V159c4.2-1.8,8.8-2.8,13.7-2.8c18.6,0,33.8,14.5,35,32.8
					C269.9,182.2,278.1,175.8,286.7,170z"/>
			</g>
			<g>
				<path class="st1" d="M250,364h36.7v-87.7h51c20.2,0,36.6-16.5,36.6-36.6V203h-71.8c-9.1,11.8-15.9,25.4-20.6,41.7
					c-7.6,26.5-8.4,54.9-18.5,80.6c-6,15-14.6,27.1-25,36.8C242,363.3,245.9,364,250,364z"/>
			</g>
			<g>
				<path class="st2" d="M331.4,160c-121.7,79.1-11.7,187.3-171.6,224.6c77.3-36.3,80.7-128.8,32.9-167.9l46.8,14.6
					C239.5,231.4,273,185.2,331.4,160z"/>
			</g>
			<g>
				<path class="st2" d="M227.1,169.2c12.2,0,22.1,9.9,22.1,22.1c0,12.2-9.9,22-22.1,22c-12.2,0-22.1-9.9-22.1-22
					C205,179.1,214.9,169.2,227.1,169.2z"/>
			</g>
		</g>
	</g>
</g>
</svg>
