<?xml version="1.0" encoding="utf-8"?>
<!-- Generator: Adobe Illustrator 28.2.0, SVG Export Plug-In . SVG Version: 6.00 Build 0)  -->
<svg version="1.1" id="Camada_1" xmlns="http://www.w3.org/2000/svg" xmlns:xlink="http://www.w3.org/1999/xlink" x="0px" y="0px"
	 viewBox="0 0 500 500" style="enable-background:new 0 0 500 500;" xml:space="preserve">
<style type="text/css">
	.st0{fill:#00B33D;}
	.st1{fill:#FFD900;}
	.st2{fill:#FFFFFF;}
</style>
<g>
	<g id="_677642184_00000023248818143080292520000016026420876983576454_">
		<g>
			<g>
				<path class="st0" d="M141.8,143.19c-19.85,3.47-35.03,20.86-35.03,41.66v42.22h97.7c-2.16-17.19-8.64-33.82-19.95-47.19
					c-3.02-3.57-6.33-6.89-9.95-9.85L141.8,143.19z"/>
			</g>
			<g>
				<path class="st0" d="M292.27,104.54V83.84c0-23.22-19.05-42.27-42.27-42.27h-42.27v50.31c4.87-2.06,10.2-3.22,15.83-3.22
					c21.46,0,38.95,16.69,40.31,37.79C272.87,118.61,282.37,111.28,292.27,104.54z"/>
			</g>
			<g>
				<path class="st1" d="M250,328.09h42.27V227.07h58.75c23.22,0,42.22-19,42.22-42.22v-42.27h-82.67
					c-10.5,13.62-18.34,29.3-23.72,48.05c-8.74,30.56-9.65,63.22-21.36,92.93c-6.89,17.34-16.79,31.21-28.85,42.37
					C240.8,327.33,245.33,328.09,250,328.09z"/>
			</g>
			<g>
				<path class="st2" d="M343.78,93.08c-140.22,91.17-13.42,215.8-197.71,258.82c89.06-41.81,93.03-148.41,37.94-193.44l53.93,16.84
					C237.94,175.3,276.44,122.13,343.78,93.08z"/>
			</g>
			<g>
				<path class="st2" d="M223.57,103.64c14.02,0,25.43,11.36,25.43,25.43c0,14.02-11.41,25.38-25.43,25.38
					c-14.02,0-25.43-11.36-25.43-25.38C198.14,114.99,209.54,103.64,223.57,103.64z"/>
			</g>
		</g>
	</g>
	<g>
		<g>
			<path class="st2" d="M160.04,406.81c-1.2-0.55-2.15-1.29-2.85-2.24c-0.7-0.94-1.07-2-1.12-3.16h4.13
				c0.07,0.82,0.46,1.5,1.17,2.05c0.71,0.55,1.6,0.82,2.67,0.82c1.12,0,1.99-0.21,2.6-0.65c0.62-0.43,0.93-0.99,0.93-1.66
				c0-0.72-0.34-1.26-1.03-1.61s-1.78-0.73-3.27-1.15c-1.45-0.4-2.62-0.78-3.53-1.15s-1.7-0.94-2.36-1.71s-1-1.78-1-3.04
				c0-1.03,0.3-1.96,0.91-2.81s1.47-1.52,2.61-2.01c1.13-0.49,2.43-0.73,3.9-0.73c2.19,0,3.96,0.55,5.3,1.66
				c1.34,1.11,2.06,2.62,2.15,4.53h-3.99c-0.07-0.86-0.42-1.55-1.05-2.06c-0.63-0.51-1.48-0.77-2.55-0.77
				c-1.05,0-1.85,0.2-2.41,0.59c-0.56,0.4-0.84,0.92-0.84,1.57c0,0.51,0.19,0.94,0.56,1.29s0.83,0.62,1.36,0.82
				c0.54,0.2,1.33,0.45,2.38,0.75c1.4,0.37,2.55,0.75,3.44,1.14s1.67,0.95,2.33,1.7s0.99,1.74,1.01,2.97c0,1.1-0.3,2.08-0.91,2.94
				s-1.46,1.54-2.57,2.03c-1.11,0.49-2.41,0.73-3.9,0.73C162.6,407.63,161.24,407.36,160.04,406.81z"/>
			<path class="st2" d="M193.24,388.05v19.27h-3.99v-2.27c-0.63,0.79-1.45,1.42-2.46,1.87c-1.01,0.46-2.09,0.68-3.23,0.68
				c-1.52,0-2.87-0.31-4.07-0.94c-1.2-0.63-2.15-1.56-2.83-2.8c-0.69-1.24-1.03-2.73-1.03-4.48v-11.33h3.95v10.73
				c0,1.73,0.43,3.05,1.29,3.97c0.86,0.92,2.04,1.38,3.53,1.38c1.49,0,2.67-0.46,3.55-1.38c0.87-0.92,1.31-2.24,1.31-3.97v-10.73
				H193.24z"/>
			<path class="st2" d="M198.36,392.46c0.8-1.49,1.9-2.65,3.29-3.48c1.39-0.83,2.92-1.24,4.6-1.24c1.52,0,2.84,0.3,3.97,0.89
				s2.03,1.33,2.71,2.22v-2.8h4.02v19.27h-4.02v-2.87c-0.68,0.91-1.6,1.67-2.76,2.27c-1.17,0.61-2.49,0.91-3.99,0.91
				c-1.66,0-3.17-0.42-4.55-1.28c-1.38-0.85-2.46-2.04-3.27-3.57c-0.8-1.53-1.21-3.26-1.21-5.19
				C197.15,395.67,197.56,393.95,198.36,392.46z M212.1,394.21c-0.55-0.98-1.27-1.72-2.15-2.24c-0.89-0.51-1.84-0.77-2.87-0.77
				c-1.03,0-1.98,0.25-2.87,0.75c-0.89,0.5-1.6,1.24-2.15,2.2c-0.55,0.97-0.82,2.12-0.82,3.44s0.27,2.5,0.82,3.5
				s1.27,1.77,2.17,2.29s1.85,0.79,2.85,0.79c1.03,0,1.98-0.26,2.87-0.77c0.88-0.51,1.6-1.26,2.15-2.26
				c0.55-0.99,0.82-2.15,0.82-3.48C212.92,396.34,212.65,395.19,212.1,394.21z"/>
			<path class="st2" d="M112.99,443.08c-1.31-0.57-2.33-1.38-3.08-2.43s-1.12-2.27-1.12-3.67h4.27c0.09,1.05,0.51,1.91,1.24,2.59
				c0.73,0.68,1.77,1.01,3.09,1.01c1.38,0,2.45-0.33,3.22-1s1.15-1.52,1.15-2.57c0-0.82-0.24-1.48-0.72-1.99
				c-0.48-0.51-1.07-0.91-1.78-1.19c-0.71-0.28-1.7-0.58-2.95-0.91c-1.59-0.42-2.87-0.84-3.86-1.28c-0.99-0.43-1.83-1.1-2.54-2.01
				c-0.7-0.91-1.05-2.12-1.05-3.64c0-1.4,0.35-2.62,1.05-3.67c0.7-1.05,1.68-1.85,2.94-2.41s2.72-0.84,4.37-0.84
				c2.35,0,4.28,0.59,5.79,1.77c1.5,1.18,2.34,2.79,2.5,4.84h-4.41c-0.07-0.89-0.49-1.64-1.26-2.27c-0.77-0.63-1.78-0.94-3.04-0.94
				c-1.14,0-2.08,0.29-2.8,0.87c-0.72,0.58-1.08,1.42-1.08,2.52c0,0.75,0.23,1.36,0.68,1.84c0.45,0.48,1.03,0.86,1.73,1.14
				c0.7,0.28,1.66,0.58,2.87,0.91c1.61,0.44,2.92,0.89,3.93,1.33c1.01,0.44,1.88,1.12,2.59,2.05s1.07,2.15,1.07,3.69
				c0,1.24-0.33,2.4-1,3.5c-0.67,1.1-1.63,1.98-2.9,2.64s-2.77,1-4.49,1C115.77,443.94,114.3,443.65,112.99,443.08z"/>
			<path class="st2" d="M130.39,428.83c0.8-1.49,1.9-2.65,3.29-3.48c1.39-0.83,2.92-1.24,4.6-1.24c1.52,0,2.84,0.3,3.97,0.89
				s2.03,1.33,2.71,2.22v-2.8h4.02v19.27h-4.02v-2.87c-0.68,0.91-1.6,1.67-2.76,2.27c-1.17,0.61-2.49,0.91-3.99,0.91
				c-1.66,0-3.17-0.42-4.55-1.28c-1.38-0.85-2.46-2.04-3.27-3.57c-0.8-1.53-1.21-3.26-1.21-5.19
				C129.18,432.04,129.58,430.32,130.39,428.83z M144.13,430.58c-0.55-0.98-1.27-1.72-2.15-2.24c-0.89-0.51-1.84-0.77-2.87-0.77
				c-1.03,0-1.98,0.25-2.87,0.75c-0.89,0.5-1.6,1.24-2.15,2.2c-0.55,0.97-0.82,2.12-0.82,3.44s0.27,2.5,0.82,3.5
				s1.27,1.77,2.17,2.29s1.85,0.79,2.85,0.79c1.03,0,1.98-0.26,2.87-0.77c0.88-0.51,1.6-1.26,2.15-2.26
				c0.55-0.99,0.82-2.15,0.82-3.48C144.95,432.71,144.68,431.56,144.13,430.58z"/>
			<path class="st2" d="M171.66,424.42v19.27h-3.99v-2.27c-0.63,0.79-1.45,1.42-2.46,1.87c-1.01,0.46-2.09,0.68-3.23,0.68
				c-1.52,0-2.87-0.31-4.07-0.94c-1.2-0.63-2.15-1.56-2.83-2.8c-0.69-1.24-1.03-2.73-1.03-4.48v-11.33h3.95v10.73
				c0,1.73,0.43,3.05,1.29,3.97c0.86,0.92,2.04,1.38,3.53,1.38c1.49,0,2.67-0.46,3.55-1.38c0.87-0.92,1.31-2.24,1.31-3.97v-10.73
				H171.66z M166.56,419.25l-7.73,3.81v-2.94l7.73-4.27V419.25z"/>
			<path class="st2" d="M176.79,428.83c0.8-1.49,1.9-2.65,3.29-3.48c1.39-0.83,2.93-1.24,4.63-1.24c1.26,0,2.5,0.27,3.72,0.82
				c1.22,0.55,2.2,1.28,2.92,2.19v-9.3h4.02v25.88h-4.02v-2.9c-0.65,0.93-1.56,1.7-2.71,2.31c-1.15,0.61-2.48,0.91-3.97,0.91
				c-1.68,0-3.21-0.42-4.6-1.28c-1.39-0.85-2.48-2.04-3.29-3.57c-0.8-1.53-1.21-3.26-1.21-5.19
				C175.58,432.04,175.98,430.32,176.79,428.83z M190.53,430.58c-0.55-0.98-1.27-1.72-2.15-2.24c-0.89-0.51-1.84-0.77-2.87-0.77
				c-1.03,0-1.98,0.25-2.87,0.75c-0.89,0.5-1.6,1.24-2.15,2.2c-0.55,0.97-0.82,2.12-0.82,3.44s0.27,2.5,0.82,3.5
				s1.27,1.77,2.17,2.29s1.85,0.79,2.85,0.79c1.03,0,1.98-0.26,2.87-0.77c0.88-0.51,1.6-1.26,2.15-2.26
				c0.55-0.99,0.82-2.15,0.82-3.48C191.35,432.71,191.08,431.56,190.53,430.58z"/>
			<path class="st2" d="M218.13,435.54h-14.72c0.12,1.54,0.69,2.77,1.71,3.71s2.28,1.4,3.78,1.4c2.14,0,3.66-0.9,4.55-2.69h4.3
				c-0.58,1.77-1.64,3.22-3.16,4.35c-1.53,1.13-3.42,1.7-5.68,1.7c-1.84,0-3.49-0.41-4.95-1.24c-1.46-0.83-2.6-1.99-3.43-3.5
				c-0.83-1.5-1.24-3.25-1.24-5.23s0.4-3.72,1.21-5.23c0.8-1.5,1.93-2.66,3.39-3.48c1.46-0.82,3.13-1.22,5.02-1.22
				c1.82,0,3.44,0.4,4.86,1.19c1.42,0.79,2.53,1.91,3.32,3.34c0.79,1.43,1.19,3.08,1.19,4.95
				C218.27,434.31,218.23,434.96,218.13,435.54z M214.11,432.33c-0.02-1.47-0.55-2.65-1.57-3.53c-1.03-0.89-2.3-1.33-3.81-1.33
				c-1.38,0-2.55,0.44-3.53,1.31c-0.98,0.87-1.56,2.06-1.75,3.55H214.11z"/>
		</g>
		<g>
			<path class="st2" d="M276.95,400.91c-1.14-2.09-2.77-3.7-4.89-4.8c-2.12-1.11-4.62-1.66-7.5-1.66c-4.97,0-8.95,1.63-11.94,4.89
				c-2.99,3.26-4.49,7.62-4.49,13.07c0,5.81,1.57,10.34,4.71,13.6c3.14,3.26,7.47,4.89,12.98,4.89c3.77,0,6.96-0.96,9.56-2.87
				c2.6-1.92,4.5-4.67,5.7-8.26h-19.49v-11.31h33.4v14.28c-1.14,3.83-3.07,7.39-5.79,10.69c-2.72,3.29-6.18,5.96-10.37,7.99
				c-4.19,2.04-8.92,3.05-14.19,3.05c-6.23,0-11.78-1.36-16.66-4.09c-4.88-2.72-8.68-6.51-11.4-11.36
				c-2.72-4.85-4.09-10.39-4.09-16.61c0-6.23,1.36-11.78,4.09-16.66c2.72-4.88,6.51-8.68,11.36-11.4
				c4.85-2.72,10.39-4.09,16.61-4.09c7.54,0,13.9,1.83,19.08,5.48c5.18,3.65,8.61,8.71,10.28,15.18H276.95z"/>
			<path class="st2" d="M317.04,440.51c-4.94-2.75-8.86-6.6-11.76-11.54c-2.9-4.94-4.36-10.49-4.36-16.66
				c0-6.17,1.45-11.7,4.36-16.61c2.9-4.91,6.82-8.74,11.76-11.49c4.94-2.75,10.37-4.13,16.3-4.13s11.36,1.38,16.3,4.13
				c4.94,2.75,8.83,6.59,11.67,11.49c2.84,4.91,4.27,10.45,4.27,16.61c0,6.17-1.44,11.72-4.31,16.66
				c-2.87,4.94-6.77,8.79-11.67,11.54c-4.91,2.75-10.33,4.13-16.25,4.13S321.98,443.27,317.04,440.51z M345.42,425.61
				c3.02-3.35,4.53-7.78,4.53-13.29c0-5.57-1.51-10.01-4.53-13.33c-3.02-3.32-7.05-4.98-12.08-4.98c-5.09,0-9.15,1.65-12.17,4.94
				c-3.02,3.29-4.54,7.75-4.54,13.38c0,5.57,1.51,10.01,4.54,13.33c3.02,3.32,7.08,4.98,12.17,4.98
				C338.37,430.63,342.39,428.96,345.42,425.61z"/>
		</g>
	</g>
</g>
</svg>
